<svg width="194" height="194" viewBox="0 0 194 194" fill="none" xmlns="http://www.w3.org/2000/svg">
<path d="M159 97.5C159 62.9822 131.018 35 96.5 35C61.9822 35 34 62.9822 34 97.5C34 132.018 61.9822 160 96.5 160C131.018 160 159 132.018 159 97.5ZM192 97.5C192 150.243 149.243 193 96.5 193C43.7568 193 1 150.243 1 97.5C1 44.7568 43.7568 2 96.5 2C149.243 2 192 44.7568 192 97.5Z" fill="#F6F5F3"/>
<path d="M159 97.5C159 62.9822 131.018 35 96.5 35C61.9822 35 34 62.9822 34 97.5C34 132.018 61.9822 160 96.5 160C131.018 160 159 132.018 159 97.5ZM162 97.5C162 133.675 132.675 163 96.5 163C60.3253 163 31 133.675 31 97.5C31 61.3253 60.3253 32 96.5 32C132.675 32 162 61.3253 162 97.5Z" fill="black"/>
<path d="M95.0283 123.659L95.0283 70.8086C95.0283 69.9956 95.687 69.3369 96.5 69.3369C97.313 69.3369 97.9717 69.9956 97.9717 70.8086L97.9717 123.659C97.9717 124.472 97.313 125.132 96.5 125.132C95.6871 125.132 95.0283 124.472 95.0283 123.659Z" fill="black"/>
<path d="M84.987 112.702C85.363 111.982 86.2516 111.702 86.9723 112.078C89.8333 113.57 91.8466 114.998 93.5085 116.743C94.6552 117.947 95.6024 119.273 96.5397 120.803C97.6747 119.044 98.7555 117.59 99.9665 116.338C101.651 114.597 103.535 113.297 106.061 112.061C106.791 111.703 107.674 112.006 108.031 112.736C108.388 113.467 108.085 114.348 107.355 114.705C105.065 115.825 103.481 116.939 102.083 118.385C100.663 119.853 99.3842 121.714 97.7624 124.417C97.492 124.868 97.0016 125.139 96.4762 125.131C95.951 125.122 95.4703 124.835 95.2145 124.376C93.8573 121.941 92.7613 120.227 91.3766 118.774C90.0037 117.332 88.284 116.082 85.611 114.688C84.8903 114.312 84.611 113.423 84.987 112.702Z" fill="black"/>
<path d="M190.528 96.5C190.528 44.5698 148.43 2.47168 96.5 2.47168C44.5698 2.47168 2.47168 44.5698 2.47168 96.5C2.47168 148.43 44.5698 190.528 96.5 190.528C148.43 190.528 190.528 148.43 190.528 96.5ZM193.472 96.5C193.472 150.056 150.056 193.472 96.5 193.472C42.9439 193.472 -0.47168 150.056 -0.47168 96.5C-0.47168 42.9439 42.9439 -0.47168 96.5 -0.47168C150.056 -0.47168 193.472 42.9439 193.472 96.5Z" fill="black"/>
<path d="M59.1794 162.419C60.3811 163.143 61.1939 164.056 61.6178 165.157C62.0368 166.255 61.9659 167.27 61.405 168.201L59.9127 167.301C60.168 166.878 60.1196 166.362 59.7677 165.754C59.408 165.148 58.8341 164.607 58.0461 164.132C57.332 163.702 56.6545 163.462 56.0136 163.411C55.3678 163.358 54.9292 163.523 54.6977 163.907C54.5523 164.149 54.5183 164.417 54.5956 164.712C54.668 165.004 54.8459 165.316 55.1293 165.648C55.4097 165.984 55.67 166.265 55.9102 166.491C56.1474 166.721 56.4595 167 56.8464 167.327C57.8053 168.153 58.4491 169.017 58.7777 169.92C59.1034 170.828 59.014 171.701 58.5095 172.538C57.9575 173.454 57.1376 173.974 56.0497 174.097C54.9568 174.217 53.8539 173.942 52.7409 173.271C51.6032 172.586 50.8362 171.714 50.4398 170.656C50.0385 169.595 50.102 168.626 50.6302 167.75L52.1224 168.649C51.891 169.033 51.9404 169.503 52.2707 170.057C52.596 170.609 53.1207 171.103 53.8446 171.54C54.5194 171.946 55.154 172.174 55.7485 172.224C56.3381 172.27 56.7457 172.106 56.9712 171.732C57.3896 171.037 56.73 169.965 54.9923 168.515C52.7495 166.6 52.1252 164.818 53.1194 163.168C53.6981 162.207 54.5609 161.667 55.708 161.545C56.8502 161.421 58.0073 161.713 59.1794 162.419Z" fill="black"/>
<path d="M44.1124 149.79C45.4044 151.076 46.0586 152.579 46.0749 154.299C46.0913 156.018 45.4688 157.512 44.2074 158.78C42.9419 160.051 41.4492 160.683 39.7294 160.675C38.0095 160.667 36.5036 160.02 35.2116 158.734C34.1194 157.647 33.4821 156.388 33.2997 154.958C33.1174 153.527 33.4069 152.205 34.1683 150.991L35.446 152.263C35.1471 153.044 35.1145 153.88 35.3484 154.77C35.5782 155.656 36.0518 156.455 36.7691 157.169C37.7106 158.106 38.773 158.612 39.9563 158.686C41.1315 158.761 42.1349 158.38 42.9663 157.545C43.7937 156.713 44.1694 155.708 44.0934 154.529C44.0092 153.35 43.4964 152.292 42.555 151.355C41.8376 150.642 41.0355 150.172 40.1487 149.946C39.2577 149.717 38.4223 149.753 37.6423 150.056L36.3646 148.784C37.5785 148.013 38.9012 147.715 40.3327 147.891C41.7603 148.07 43.0202 148.703 44.1124 149.79Z" fill="black"/>
<path d="M32.3287 134.153L30.4758 138.853L32.1717 141.464L35.6219 139.223L36.5333 140.626L26.3129 147.264L23.311 142.642C22.6689 141.654 22.4564 140.619 22.6735 139.539C22.8906 138.459 23.4838 137.604 24.453 136.974C25.2342 136.467 26.0622 136.248 26.9369 136.318C27.8037 136.385 28.5741 136.711 29.2481 137.295L31.2059 132.424L32.3287 134.153ZM27.2098 144.687L30.3635 142.638L28.3058 139.47C27.908 138.858 27.4408 138.455 26.904 138.262C26.3625 138.072 25.8602 138.128 25.3973 138.428C24.9247 138.735 24.6675 139.173 24.6256 139.742C24.5789 140.314 24.7544 140.906 25.1521 141.519L27.2098 144.687Z" fill="black"/>
<path d="M24.3912 118.7C25.9488 119.429 27.0451 120.651 27.6799 122.366C28.3128 124.075 28.2757 125.714 27.5686 127.281C26.8615 128.849 25.6694 129.944 23.9925 130.564C22.3101 131.187 20.6901 131.134 19.1325 130.405C17.5749 129.676 16.4797 128.456 15.8468 126.747C15.2119 125.032 15.248 123.391 15.9551 121.823C16.6623 120.255 17.857 119.16 19.5394 118.537C21.2163 117.916 22.8336 117.971 24.3912 118.7ZM25.6734 126.659C26.0919 125.553 26.0705 124.378 25.6093 123.132C25.1462 121.881 24.3969 120.975 23.3615 120.415C22.3187 119.85 21.2473 119.772 20.1473 120.179C19.0419 120.588 18.2799 121.346 17.8614 122.451C17.4356 123.553 17.4542 124.729 17.9174 125.98C18.3786 127.226 19.1305 128.131 20.1733 128.695C21.2087 129.256 22.2791 129.332 23.3845 128.923C24.4845 128.515 25.2475 127.761 25.6734 126.659Z" fill="black"/>
<path d="M21.2159 108.779L20.2795 102.684L22.4107 102.357L23.6012 110.106L11.5555 111.956L11.3015 110.302L21.2159 108.779Z" fill="black"/>
<path d="M20.8485 97.0222L20.8584 90.8555L23.0146 90.8589L23.002 98.6989L10.8151 98.6794L10.8178 97.0062L20.8485 97.0222Z" fill="black"/>
<path d="M16.7042 65.1427C17.3583 63.4908 18.4423 62.3307 19.9562 61.6624C21.4647 60.992 23.0316 60.9785 24.6568 61.6221C26.2766 62.2636 27.4095 63.3461 28.0554 64.8696C28.6981 66.3857 28.6913 67.9724 28.035 69.6297L26.2949 74.0241L14.964 69.5371L16.7042 65.1427ZM26.0176 68.8679C26.4897 67.6757 26.5333 66.5427 26.1484 65.4688C25.7635 64.3949 25.0525 63.6526 24.0153 63.2419C22.9729 62.8291 21.9438 62.8823 20.928 63.4016C19.9143 63.9154 19.1704 64.7711 18.6962 65.9686L17.5848 68.7753L24.9061 71.6745L26.0176 68.8679Z" fill="black"/>
<path d="M39.3262 48.5881C39.5848 50.2884 39.1775 51.8787 38.1042 53.359C37.0342 54.8347 35.651 55.7138 33.9545 55.9966C32.2581 56.2793 30.686 55.8958 29.2382 54.8461C27.7859 53.7931 26.9304 52.4164 26.6717 50.716C26.4131 49.0157 26.8187 47.4277 27.8887 45.9521C28.962 44.4718 30.3469 43.5903 32.0434 43.3075C33.7399 43.0248 35.3143 43.41 36.7667 44.4631C38.2144 45.5127 39.0676 46.8877 39.3262 48.5881ZM33.4197 54.0747C34.5713 53.8088 35.537 53.1382 36.3166 52.0629C37.0997 50.983 37.4369 49.8567 37.3282 48.6842C37.2183 47.5036 36.6885 46.5691 35.7389 45.8805C34.7846 45.1886 33.7317 44.9756 32.5801 45.2414C31.4272 45.4993 30.4593 46.1682 29.6762 47.2482C28.8966 48.3235 28.5617 49.4514 28.6716 50.632C28.7803 51.8045 29.3117 52.7367 30.266 53.4287C31.2156 54.1172 32.2669 54.3326 33.4197 54.0747Z" fill="black"/>
<path d="M48.9647 41.6035L38.2528 34.5618L39.6614 33.4369L47.5288 38.4786L47.859 38.2149L44.6149 29.481L45.8415 28.5014L53.655 33.5862L53.9852 33.3225L50.8152 24.5294L52.2911 23.3507L56.7893 35.3548L55.1987 36.625L47.8767 31.7548L47.4184 32.1208L50.5485 40.3387L48.9647 41.6035Z" fill="black"/>
<path d="M63.909 31.1066L59.1146 19.9023L60.9305 19.1253L70.1845 24.5937L70.4779 24.4681L67.0678 16.4991L68.614 15.8374L73.4085 27.0417L71.5688 27.8289L62.3114 22.3526L62.0339 22.4714L65.4473 30.4483L63.909 31.1066Z" fill="black"/>
<path d="M94.0609 19.2051V17.1179H99.1495V19.2051H94.0609Z" fill="black"/>
<path d="M94.0609 175.205V173.118H99.1495V175.205H94.0609Z" fill="black"/>
<path d="M127.278 28.9889C125.988 28.437 125.058 27.6448 124.486 26.6123C123.92 25.582 123.851 24.5673 124.279 23.5682L125.88 24.2536C125.686 24.7082 125.805 25.2125 126.237 25.7664C126.677 26.3173 127.319 26.7737 128.165 27.1357C128.932 27.4637 129.636 27.6086 130.278 27.5705C130.925 27.5347 131.336 27.3106 131.513 26.8982C131.624 26.6392 131.62 26.3689 131.503 26.0874C131.391 25.8081 131.172 25.5236 130.846 25.2338C130.522 24.9388 130.225 24.6963 129.956 24.5061C129.69 24.3107 129.342 24.0776 128.914 23.8068C127.851 23.1204 127.094 22.3526 126.644 21.5035C126.197 20.6491 126.166 19.7725 126.55 18.8739C126.971 17.8906 127.712 17.2632 128.772 16.9915C129.838 16.7222 130.968 16.8431 132.163 17.3543C133.384 17.8768 134.264 18.6347 134.802 19.628C135.345 20.6236 135.416 21.5918 135.013 22.5328L133.411 21.8474C133.588 21.435 133.474 20.9768 133.071 20.4727C132.673 19.9708 132.085 19.5537 131.308 19.2211C130.584 18.9112 129.924 18.7727 129.328 18.8055C128.738 18.8405 128.357 19.0589 128.185 19.4607C127.866 20.2061 128.667 21.1773 130.587 22.3744C133.072 23.9631 133.936 25.6428 133.178 27.4137C132.737 28.4446 131.956 29.0988 130.837 29.3765C129.723 29.6565 128.536 29.5273 127.278 28.9889Z" fill="black"/>
<path d="M144.322 39.0244C142.866 37.9286 142.011 36.5301 141.758 34.8289C141.505 33.1277 141.917 31.5626 142.992 30.1336C144.07 28.7001 145.462 27.869 147.166 27.6404C148.871 27.4119 150.452 27.8455 151.908 28.9413C153.14 29.8678 153.944 31.027 154.321 32.419C154.699 33.8111 154.594 35.1604 154.006 36.4671L152.566 35.3834C152.755 34.5683 152.672 33.7362 152.318 32.8869C151.968 32.0412 151.389 31.3141 150.581 30.7057C149.519 29.9071 148.398 29.5524 147.215 29.6415C146.041 29.7294 145.099 30.2443 144.391 31.1863C143.686 32.1236 143.452 33.1709 143.689 34.3281C143.935 35.4842 144.588 36.4615 145.65 37.2601C146.458 37.8685 147.317 38.2234 148.227 38.3248C149.141 38.4297 149.963 38.2785 150.694 37.8714L152.135 38.9551C151.038 39.8861 149.769 40.3632 148.327 40.3863C146.888 40.4048 145.553 39.9509 144.322 39.0244Z" fill="black"/>
<path d="M158.077 52.9703L159.266 48.06L157.227 45.7069L154.118 48.401L153.022 47.1365L162.232 39.1558L165.841 43.3209C166.613 44.2118 166.966 45.2071 166.9 46.307C166.833 47.4069 166.363 48.3353 165.49 49.0921C164.786 49.7021 163.996 50.0328 163.12 50.0843C162.252 50.1364 161.444 49.9196 160.696 49.4341L159.427 54.5282L158.077 52.9703ZM161.698 41.8323L158.856 44.2949L161.33 47.1499C161.809 47.7018 162.327 48.0364 162.885 48.1538C163.447 48.2674 163.937 48.1434 164.355 47.7819C164.78 47.4129 164.975 46.9438 164.938 46.3746C164.906 45.8016 164.651 45.2392 164.172 44.6873L161.698 41.8323Z" fill="black"/>
<path d="M167.949 66.5743C166.306 66.0662 165.052 65.0066 164.188 63.3955C163.326 61.7895 163.137 60.1614 163.622 58.5112C164.107 56.8611 165.137 55.6132 166.713 54.7676C168.293 53.9192 169.905 53.7491 171.548 54.2572C173.191 54.7653 174.444 55.8224 175.306 57.4284C176.171 59.0395 176.36 60.6702 175.876 62.3203C175.391 63.9705 174.358 65.2197 172.778 66.0681C171.202 66.9137 169.592 67.0825 167.949 66.5743ZM165.585 58.8673C165.322 60.0197 165.505 61.1811 166.133 62.3514C166.764 63.5268 167.631 64.321 168.734 64.7342C169.844 65.1497 170.916 65.0801 171.95 64.5254C172.988 63.9679 173.639 63.1131 173.901 61.9607C174.171 60.8107 173.991 59.648 173.36 58.4726C172.732 57.3022 171.863 56.5093 170.752 56.0939C169.65 55.6807 168.579 55.7529 167.541 56.3103C166.507 56.865 165.855 57.7173 165.585 58.8673Z" fill="black"/>
<path d="M171.637 76.1263L173.403 82.0348L171.337 82.6522L169.092 75.1405L180.769 71.6509L181.248 73.254L171.637 76.1263Z" fill="black"/>
<path d="M174.702 87.9916L175.54 94.1011L173.404 94.3943L172.338 86.6271L184.412 84.9702L184.64 86.6279L174.702 87.9916Z" fill="black"/>
<path d="M181.89 118.743C181.469 120.469 180.555 121.767 179.148 122.637C177.746 123.509 176.195 123.737 174.497 123.324C172.805 122.911 171.534 121.995 170.684 120.574C169.839 119.161 169.628 117.588 170.05 115.857L171.169 111.265L183.009 114.151L181.89 118.743ZM172.153 116.334C171.849 117.58 171.962 118.708 172.491 119.719C173.02 120.729 173.826 121.367 174.91 121.631C175.999 121.896 177.011 121.702 177.946 121.048C178.879 120.4 179.498 119.45 179.803 118.199L180.518 115.266L172.868 113.401L172.153 116.334Z" fill="black"/>
<path d="M162.914 139.066C162.424 137.417 162.609 135.786 163.468 134.172C164.325 132.564 165.574 131.502 167.216 130.989C168.857 130.476 170.467 130.639 172.045 131.48C173.629 132.323 174.666 133.569 175.156 135.218C175.646 136.866 175.462 138.495 174.605 140.104C173.746 141.718 172.495 142.781 170.854 143.295C169.212 143.808 167.6 143.643 166.017 142.8C164.438 141.959 163.404 140.715 162.914 139.066ZM168.01 132.819C166.906 133.241 166.041 134.038 165.417 135.21C164.79 136.388 164.611 137.55 164.88 138.696C165.151 139.85 165.804 140.703 166.84 141.254C167.88 141.809 168.952 141.875 170.056 141.453C171.163 141.039 172.03 140.243 172.657 139.066C173.281 137.894 173.458 136.73 173.186 135.576C172.917 134.43 172.263 133.579 171.222 133.025C170.187 132.474 169.116 132.405 168.01 132.819Z" fill="black"/>
<path d="M154.71 147.418L166.288 152.919L165.048 154.227L156.562 150.316L156.271 150.622L160.685 158.827L159.605 159.966L151.167 156.004L150.876 156.311L155.225 164.584L153.925 165.955L147.819 154.683L149.22 153.207L157.142 157.023L157.545 156.598L153.315 148.889L154.71 147.418Z" fill="black"/>
<path d="M140.088 159.125L146.378 169.563L144.687 170.582L134.768 166.439L134.495 166.603L138.969 174.028L137.528 174.896L131.238 164.457L132.952 163.425L142.875 167.576L143.133 167.42L138.655 159.988L140.088 159.125Z" fill="black"/>
</svg>
